#N canvas 827 239 527 327 12;
#X obj 351 209 list length;
#X obj 212 209 array set voiceData;
#X obj 350 232 array size voiceData;
#N canvas 0 22 450 278 (subpatch) 0;
#X array voiceData 13 float 5;
#A 0 -73.3166 26.7355 6.78656 1.79139 -2.79958 1.58159 2.91219 -3.82973 2.42374 -2.5594 -4.46026 -0.648425 -2.8321;
#X coords 0 1000 12 -1000 200 140 1 0 0;
#X restore 212 262 graph;
#X obj 212 56 adc~;
#X obj 212 424 array define inputbuffer 13;
#X obj 212 458 array define outputbuffer 12;
#X f 25;
#X obj 580 209 fluid.stats -history 10;
#X obj 1073 400 nn~ pluma decode, f 52;
#X obj 1073 193 vsl 17 128 0 1 0 0 empty empty empty 0 -9 0 10 #e4e4e4 #4d4d4d #373737 0 1;
#N canvas 733 172 450 300 (subpatch) 0;
#X obj 585 547 inlet;
#X obj 470 691 outlet;
#X obj 470 558 lfo -tri 0.25;
#X obj 470 641 +;
#X obj 470 603 rescale -0.5 0.5;
#X obj 585 604 scale 0 1 -3 3;
#X connect 0 0 5 0;
#X connect 2 0 4 0;
#X connect 3 0 1 0;
#X connect 4 0 3 0;
#X connect 5 0 3 1;
#X restore 1073 366 pd;
#X obj 1104 193 vsl 17 128 0 1 0 0 empty empty empty 0 -9 0 10 #e4e4e4 #4d4d4d #373737 0 1;
#X obj 1135 193 vsl 17 128 0 1 0 0 empty empty empty 0 -9 0 10 #e4e4e4 #4d4d4d #373737 0 1;
#X obj 1166 193 vsl 17 128 0 1 0 0 empty empty empty 0 -9 0 10 #e4e4e4 #4d4d4d #373737 0 1;
#X obj 1197 193 vsl 17 128 0 1 0 0 empty empty empty 0 -9 0 10 #e4e4e4 #4d4d4d #373737 0 1;
#X obj 1228 193 vsl 17 128 0 1 0 0 empty empty empty 0 -9 0 10 #e4e4e4 #4d4d4d #373737 0 1;
#X obj 1259 193 vsl 17 128 0 1 0 0 empty empty empty 0 -9 0 10 #e4e4e4 #4d4d4d #373737 0 1;
#X obj 1290 193 vsl 17 128 0 1 0 0 empty empty empty 0 -9 0 10 #e4e4e4 #4d4d4d #373737 0 1;
#X obj 1321 193 vsl 17 128 0 1 0 0 empty empty empty 0 -9 0 10 #e4e4e4 #4d4d4d #373737 0 1;
#X obj 1352 193 vsl 17 128 0 1 0 0 empty empty empty 0 -9 0 10 #e4e4e4 #4d4d4d #373737 0 1;
#X obj 1383 193 vsl 17 128 0 1 0 0 empty empty empty 0 -9 0 10 #e4e4e4 #4d4d4d #373737 0 1;
#X obj 1414 193 vsl 17 128 0 1 0 0 empty empty empty 0 -9 0 10 #e4e4e4 #4d4d4d #373737 0 1;
#N canvas 353 378 783 300 packslider 0;
#X obj 6 55 pack f 0;
#X obj 70 55 pack f 1;
#X obj 133 55 pack f 2;
#X obj 197 55 pack f 3;
#X obj 262 55 pack f 4;
#X obj 324 54 pack f 5;
#X obj 388 54 pack f 6;
#X obj 451 54 pack f 7;
#X obj 515 54 pack f 8;
#X obj 6 102 outlet;
#X obj 7 27 inlet;
#X obj 263 27 inlet;
#X obj 133 29 inlet;
#X obj 196 27 inlet;
#X obj 70 28 inlet;
#X obj 322 24 inlet;
#X obj 448 26 inlet;
#X obj 511 24 inlet;
#X obj 385 25 inlet;
#X obj 586 26 inlet;
#X obj 649 24 inlet;
#X obj 589 54 pack f 9;
#X obj 653 54 pack f 10;
#X obj 722 24 inlet;
#X obj 726 54 pack f 11;
#X connect 0 0 9 0;
#X connect 1 0 9 0;
#X connect 2 0 9 0;
#X connect 3 0 9 0;
#X connect 4 0 9 0;
#X connect 5 0 9 0;
#X connect 6 0 9 0;
#X connect 7 0 9 0;
#X connect 8 0 9 0;
#X connect 10 0 0 0;
#X connect 11 0 4 0;
#X connect 12 0 2 0;
#X connect 13 0 3 0;
#X connect 14 0 1 0;
#X connect 15 0 5 0;
#X connect 16 0 7 0;
#X connect 17 0 8 0;
#X connect 18 0 6 0;
#X connect 19 0 21 0;
#X connect 20 0 22 0;
#X connect 21 0 9 0;
#X connect 22 0 9 0;
#X connect 23 0 24 0;
#X connect 24 0 9 0;
#X restore 842 367 pd packslider;
#X f 30;
#X obj 842 400 tabwrite outputbuffer;
#X obj 612 406 tabwrite inputbuffer;
#X obj 580 375 t b l;
#X obj 547 345 vradio 19 1 0 2 empty empty empty 0 -10 0 12 #fcfcfc #000000 #000000 0;
#X text 430 343 selecting points;
#X text 423 362 predicting points;
#X obj 547 406 spigot;
#X obj 65 501 f, f 7;
#X obj 65 477 bng 19 250 50 0 empty empty empty 0 -10 0 12 #fcfcfc #000000 #000000;
#X msg 424 541 print;
#X msg 474 541 clear;
#X obj 134 501 + 1;
#X msg 66 541 addpoint \$1 inputbuffer, f 22;
#X msg 249 541 addpoint \$1 outputbuffer;
#X obj 66 565 fluid.dataset inputdata;
#X obj 249 565 fluid.dataset outputdata;
#X obj 547 569 t b;
#X obj 547 541 route predictpoint fit;
#X obj 622 569 list;
#X listbox 622 593 20 0 0 0 - - - 0;
#X text 769 582 error;
#X msg 960 440 clear;
#X msg 547 440 predictpoint inputbuffer outputbuffer;
#X msg 789 440 fit inputdata outputdata;
#X obj 547 617 array get outputbuffer;
#X obj 547 648 s decode;
#X obj 1069 114 r decode;
#X obj 1069 145 unpack f f f f f f f f f f f f, f 51;
#X obj 1073 633 else/out~;
#X obj 1073 510 delay~ 22050 14700;
#X obj 1073 548 free.rev~ 0.7 0.6 0.5 0.7;
#X obj 1073 440 eq~ 500 10 20;
#X obj 212 128 -~;
#X obj 276 97 hip~ 30;
#X obj 212 97 lop~ 120;
#X obj 1073 475 compress~ -30 10 10 5 12 512;
#X obj 1458 114 loadbang;
#X obj 1073 596 chorus~ 0.7 5 0.7;
#X text 1182 649 Step 1: Enable DAC;
#X text 425 391 Step 2: Enable selecting points, f 15;
#X text 66 647 Note: avoid adding silence;
#X text 32 27 REQUIRED EXTERNALS:, f 21;
#X text 32 51 Cyclone \; ELSE \; FluCoMa \; nn~, f 18;
#X obj 5 573 print;
#X obj 5 541 count 9;
#X msg 1481 145 1;
#N canvas 733 172 450 300 (subpatch) 0;
#X obj 585 547 inlet;
#X obj 470 691 outlet;
#X obj 470 558 lfo -tri 0.25;
#X obj 470 641 +;
#X obj 470 603 rescale -0.5 0.5;
#X obj 585 604 scale 0 1 -3 3;
#X connect 0 0 5 0;
#X connect 2 0 4 0;
#X connect 3 0 1 0;
#X connect 4 0 3 0;
#X connect 5 0 3 1;
#X restore 1104 366 pd;
#N canvas 733 172 450 300 (subpatch) 0;
#X obj 585 547 inlet;
#X obj 470 691 outlet;
#X obj 470 558 lfo -tri 0.25;
#X obj 470 641 +;
#X obj 470 603 rescale -0.5 0.5;
#X obj 585 604 scale 0 1 -3 3;
#X connect 0 0 5 0;
#X connect 2 0 4 0;
#X connect 3 0 1 0;
#X connect 4 0 3 0;
#X connect 5 0 3 1;
#X restore 1135 365 pd;
#N canvas 733 172 450 300 (subpatch) 0;
#X obj 585 547 inlet;
#X obj 470 691 outlet;
#X obj 470 558 lfo -tri 0.25;
#X obj 470 641 +;
#X obj 470 603 rescale -0.5 0.5;
#X obj 585 604 scale 0 1 -3 3;
#X connect 0 0 5 0;
#X connect 2 0 4 0;
#X connect 3 0 1 0;
#X connect 4 0 3 0;
#X connect 5 0 3 1;
#X restore 1166 365 pd;
#N canvas 733 172 450 300 (subpatch) 0;
#X obj 585 547 inlet;
#X obj 470 691 outlet;
#X obj 470 558 lfo -tri 0.25;
#X obj 470 641 +;
#X obj 470 603 rescale -0.5 0.5;
#X obj 585 604 scale 0 1 -3 3;
#X connect 0 0 5 0;
#X connect 2 0 4 0;
#X connect 3 0 1 0;
#X connect 4 0 3 0;
#X connect 5 0 3 1;
#X restore 1197 365 pd;
#N canvas 733 172 450 300 (subpatch) 0;
#X obj 585 547 inlet;
#X obj 470 691 outlet;
#X obj 470 558 lfo -tri 0.25;
#X obj 470 641 +;
#X obj 470 603 rescale -0.5 0.5;
#X obj 585 604 scale 0 1 -3 3;
#X connect 0 0 5 0;
#X connect 2 0 4 0;
#X connect 3 0 1 0;
#X connect 4 0 3 0;
#X connect 5 0 3 1;
#X restore 1228 365 pd;
#N canvas 733 172 450 300 (subpatch) 0;
#X obj 585 547 inlet;
#X obj 470 691 outlet;
#X obj 470 558 lfo -tri 0.25;
#X obj 470 641 +;
#X obj 470 603 rescale -0.5 0.5;
#X obj 585 604 scale 0 1 -3 3;
#X connect 0 0 5 0;
#X connect 2 0 4 0;
#X connect 3 0 1 0;
#X connect 4 0 3 0;
#X connect 5 0 3 1;
#X restore 1259 364 pd;
#N canvas 733 172 450 300 (subpatch) 0;
#X obj 585 547 inlet;
#X obj 470 691 outlet;
#X obj 470 558 lfo -tri 0.25;
#X obj 470 641 +;
#X obj 470 603 rescale -0.5 0.5;
#X obj 585 604 scale 0 1 -3 3;
#X connect 0 0 5 0;
#X connect 2 0 4 0;
#X connect 3 0 1 0;
#X connect 4 0 3 0;
#X connect 5 0 3 1;
#X restore 1290 364 pd;
#N canvas 733 172 450 300 (subpatch) 0;
#X obj 585 547 inlet;
#X obj 470 691 outlet;
#X obj 470 558 lfo -tri 0.25;
#X obj 470 641 +;
#X obj 470 603 rescale -0.5 0.5;
#X obj 585 604 scale 0 1 -3 3;
#X connect 0 0 5 0;
#X connect 2 0 4 0;
#X connect 3 0 1 0;
#X connect 4 0 3 0;
#X connect 5 0 3 1;
#X restore 1321 364 pd;
#N canvas 733 172 450 300 (subpatch) 0;
#X obj 585 547 inlet;
#X obj 470 691 outlet;
#X obj 470 558 lfo -tri 0.25;
#X obj 470 641 +;
#X obj 470 603 rescale -0.5 0.5;
#X obj 585 604 scale 0 1 -3 3;
#X connect 0 0 5 0;
#X connect 2 0 4 0;
#X connect 3 0 1 0;
#X connect 4 0 3 0;
#X connect 5 0 3 1;
#X restore 1352 364 pd;
#N canvas 733 172 450 300 (subpatch) 0;
#X obj 585 547 inlet;
#X obj 470 691 outlet;
#X obj 470 558 lfo -tri 0.25;
#X obj 470 641 +;
#X obj 470 603 rescale -0.5 0.5;
#X obj 585 604 scale 0 1 -3 3;
#X connect 0 0 5 0;
#X connect 2 0 4 0;
#X connect 3 0 1 0;
#X connect 4 0 3 0;
#X connect 5 0 3 1;
#X restore 1383 363 pd;
#N canvas 733 172 450 300 (subpatch) 0;
#X obj 585 547 inlet;
#X obj 470 691 outlet;
#X obj 470 558 lfo -tri 0.25;
#X obj 470 641 +;
#X obj 470 603 rescale -0.5 0.5;
#X obj 585 604 scale 0 1 -3 3;
#X connect 0 0 5 0;
#X connect 2 0 4 0;
#X connect 3 0 1 0;
#X connect 4 0 3 0;
#X connect 5 0 3 1;
#X restore 1414 363 pd;
#X msg 1439 145 0.5;
#X text 1466 237 Step 3: Find an interesting sound to match vocal sound, f 26;
#X text 66 591 Step 4: Say a vowel long enough to be recorded and hit bang to add it to the dataset, f 26;
#X text 853 473 Step 5: Fit the data pairs of inputs and outputs into the regressor, f 26;
#X text 425 431 Step 6: Swap to predicting points after training, f 15;
#X obj 547 475 fluid.mlpregressor regressor -hiddenlayers 5 -activation 1 -outputactivation 1 -batchsize 1 -maxiter 10000 -learnrate 0.01 -validation 0, f 42;
#N canvas 733 172 450 300 datanormalizer 0;
#X obj 568 500 pack f 0;
#X obj 652 500 pack f 1;
#X obj 736 500 pack f 2;
#X obj 820 500 pack f 3;
#X obj 904 500 pack f 4;
#X obj 988 500 pack f 5;
#X obj 1073 500 pack f 6;
#X obj 1157 500 pack f 7;
#X obj 1241 500 pack f 8;
#X obj 1325 500 pack f 9;
#X obj 1409 500 pack f 10;
#X obj 1493 500 pack f 11;
#X obj 1578 500 pack f 12;
#X obj 580 324 unpack f f f f f f f f f f f f f, f 147;
#X obj 580 284 inlet;
#X obj 568 544 outlet;
#X obj 736 544 outlet;
#X obj 820 544 outlet;
#X obj 904 544 outlet;
#X obj 988 544 outlet;
#X obj 1073 544 outlet;
#X obj 1157 544 outlet;
#X obj 1241 544 outlet;
#X obj 1325 544 outlet;
#X obj 1409 544 outlet;
#X obj 1493 544 outlet;
#X obj 1578 544 outlet;
#N canvas 733 172 450 300 clipscale 0;
#X obj 580 352 clip -127 127;
#X obj 580 385 scale -127 127 0 1;
#X obj 580 324 inlet;
#X obj 580 422 outlet;
#X connect 0 0 1 0;
#X connect 1 0 3 0;
#X connect 2 0 0 0;
#X restore 568 456 pd clipscale;
#N canvas 733 172 450 300 clipscale 0;
#X obj 580 352 clip -127 127;
#X obj 580 385 scale -127 127 0 1;
#X obj 580 324 inlet;
#X obj 580 422 outlet;
#X connect 0 0 1 0;
#X connect 1 0 3 0;
#X connect 2 0 0 0;
#X restore 652 456 pd clipscale;
#N canvas 733 172 450 300 clipscale 0;
#X obj 580 352 clip -127 127;
#X obj 580 385 scale -127 127 0 1;
#X obj 580 324 inlet;
#X obj 580 422 outlet;
#X connect 0 0 1 0;
#X connect 1 0 3 0;
#X connect 2 0 0 0;
#X restore 736 456 pd clipscale;
#N canvas 733 172 450 300 clipscale 0;
#X obj 580 352 clip -127 127;
#X obj 580 385 scale -127 127 0 1;
#X obj 580 324 inlet;
#X obj 580 422 outlet;
#X connect 0 0 1 0;
#X connect 1 0 3 0;
#X connect 2 0 0 0;
#X restore 820 456 pd clipscale;
#N canvas 733 172 450 300 clipscale 0;
#X obj 580 352 clip -127 127;
#X obj 580 385 scale -127 127 0 1;
#X obj 580 324 inlet;
#X obj 580 422 outlet;
#X connect 0 0 1 0;
#X connect 1 0 3 0;
#X connect 2 0 0 0;
#X restore 904 456 pd clipscale;
#N canvas 733 172 450 300 clipscale 0;
#X obj 580 352 clip -127 127;
#X obj 580 385 scale -127 127 0 1;
#X obj 580 324 inlet;
#X obj 580 422 outlet;
#X connect 0 0 1 0;
#X connect 1 0 3 0;
#X connect 2 0 0 0;
#X restore 988 456 pd clipscale;
#N canvas 733 172 450 300 clipscale 0;
#X obj 580 352 clip -127 127;
#X obj 580 385 scale -127 127 0 1;
#X obj 580 324 inlet;
#X obj 580 422 outlet;
#X connect 0 0 1 0;
#X connect 1 0 3 0;
#X connect 2 0 0 0;
#X restore 1073 456 pd clipscale;
#N canvas 733 172 450 300 clipscale 0;
#X obj 580 352 clip -127 127;
#X obj 580 385 scale -127 127 0 1;
#X obj 580 324 inlet;
#X obj 580 422 outlet;
#X connect 0 0 1 0;
#X connect 1 0 3 0;
#X connect 2 0 0 0;
#X restore 1157 456 pd clipscale;
#N canvas 733 172 450 300 clipscale 0;
#X obj 580 352 clip -127 127;
#X obj 580 385 scale -127 127 0 1;
#X obj 580 324 inlet;
#X obj 580 422 outlet;
#X connect 0 0 1 0;
#X connect 1 0 3 0;
#X connect 2 0 0 0;
#X restore 1241 456 pd clipscale;
#N canvas 733 172 450 300 clipscale 0;
#X obj 580 352 clip -127 127;
#X obj 580 385 scale -127 127 0 1;
#X obj 580 324 inlet;
#X obj 580 422 outlet;
#X connect 0 0 1 0;
#X connect 1 0 3 0;
#X connect 2 0 0 0;
#X restore 1325 456 pd clipscale;
#N canvas 733 172 450 300 clipscale 0;
#X obj 580 352 clip -127 127;
#X obj 580 385 scale -127 127 0 1;
#X obj 580 324 inlet;
#X obj 580 422 outlet;
#X connect 0 0 1 0;
#X connect 1 0 3 0;
#X connect 2 0 0 0;
#X restore 1409 456 pd clipscale;
#N canvas 733 172 450 300 clipscale 0;
#X obj 580 352 clip -127 127;
#X obj 580 385 scale -127 127 0 1;
#X obj 580 324 inlet;
#X obj 580 422 outlet;
#X connect 0 0 1 0;
#X connect 1 0 3 0;
#X connect 2 0 0 0;
#X restore 1493 456 pd clipscale;
#N canvas 733 172 450 300 clipscale 0;
#X obj 580 352 clip -127 127;
#X obj 580 385 scale -127 127 0 1;
#X obj 580 324 inlet;
#X obj 580 422 outlet;
#X connect 0 0 1 0;
#X connect 1 0 3 0;
#X connect 2 0 0 0;
#X restore 1578 456 pd clipscale;
#X obj 652 544 outlet;
#X obj 568 421 gate;
#X obj 534 324 > 0;
#X obj 534 357 tgl 25 0 empty empty empty 17 7 0 10 #e4e4e4 #4d4d4d #373737 0 1;
#X obj 652 421 gate;
#X obj 736 421 gate;
#X obj 820 421 gate;
#X obj 904 421 gate;
#X obj 988 421 gate;
#X obj 1073 421 gate;
#X obj 1157 421 gate;
#X obj 1241 421 gate;
#X obj 1325 421 gate;
#X obj 1409 421 gate;
#X obj 1493 421 gate;
#X obj 1578 421 gate;
#X obj 482 324 <= 0;
#X obj 482 363 s off;
#X connect 0 0 15 0;
#X connect 1 0 40 0;
#X connect 2 0 16 0;
#X connect 3 0 17 0;
#X connect 4 0 18 0;
#X connect 5 0 19 0;
#X connect 6 0 20 0;
#X connect 7 0 21 0;
#X connect 8 0 22 0;
#X connect 9 0 23 0;
#X connect 10 0 24 0;
#X connect 11 0 25 0;
#X connect 12 0 26 0;
#X connect 13 0 42 0;
#X connect 13 0 41 1;
#X connect 13 0 56 0;
#X connect 13 1 44 1;
#X connect 13 2 45 1;
#X connect 13 3 46 1;
#X connect 13 4 47 1;
#X connect 13 5 48 1;
#X connect 13 6 49 1;
#X connect 13 7 50 1;
#X connect 13 8 51 1;
#X connect 13 9 52 1;
#X connect 13 10 53 1;
#X connect 13 11 54 1;
#X connect 13 12 55 1;
#X connect 14 0 13 0;
#X connect 27 0 0 0;
#X connect 28 0 1 0;
#X connect 29 0 2 0;
#X connect 30 0 3 0;
#X connect 31 0 4 0;
#X connect 32 0 5 0;
#X connect 33 0 6 0;
#X connect 34 0 7 0;
#X connect 35 0 8 0;
#X connect 36 0 9 0;
#X connect 37 0 10 0;
#X connect 38 0 11 0;
#X connect 39 0 12 0;
#X connect 41 0 27 0;
#X connect 42 0 43 0;
#X connect 43 0 41 0;
#X connect 43 0 44 0;
#X connect 43 0 45 0;
#X connect 43 0 46 0;
#X connect 43 0 47 0;
#X connect 43 0 48 0;
#X connect 43 0 49 0;
#X connect 43 0 50 0;
#X connect 43 0 51 0;
#X connect 43 0 52 0;
#X connect 43 0 53 0;
#X connect 43 0 54 0;
#X connect 43 0 55 0;
#X connect 44 0 28 0;
#X connect 45 0 29 0;
#X connect 46 0 30 0;
#X connect 47 0 31 0;
#X connect 48 0 32 0;
#X connect 49 0 33 0;
#X connect 50 0 34 0;
#X connect 51 0 35 0;
#X connect 52 0 36 0;
#X connect 53 0 37 0;
#X connect 54 0 38 0;
#X connect 55 0 39 0;
#X connect 56 0 57 0;
#X restore 580 248 pd datanormalizer;
#X obj 212 168 fluid.mfcc~ 13 -maxnumcoeffs 40 -startcoeff 0, f 41;
#X obj 1564 75 r off;
#X obj 1552 114 gate;
#X obj 1526 75 tgl 25 0 empty empty empty 17 7 0 10 #e4e4e4 #4d4d4d #373737 0 1;
#X msg 1554 145 1;
#X text 1615 80 Step 7: Enable toggle to filter out silence after training, f 15;
#X connect 0 0 2 0;
#X connect 4 0 56 0;
#X connect 4 0 57 0;
#X connect 4 1 56 0;
#X connect 4 1 57 0;
#X connect 7 0 86 0;
#X connect 8 0 54 0;
#X connect 9 0 10 0;
#X connect 9 0 22 0 32.................Y....3w+++eF....d7+++GC....;
#X connect 10 0 8 0;
#X connect 11 0 22 1 32.................Y.....w+++eF....P7+++GC....;
#X connect 11 0 69 0;
#X connect 12 0 22 2 32.................Y....Hv+++eF....B7+++GC....;
#X connect 12 0 70 0;
#X connect 13 0 22 3 32.................Y....Tu+++eF....06+++GC....;
#X connect 13 0 71 0;
#X connect 14 0 22 4 32.................Y....bt+++eF....m6+++GC....;
#X connect 14 0 72 0;
#X connect 15 0 22 5 32.................Y....js+++eF....Y6+++GC....;
#X connect 15 0 73 0;
#X connect 16 0 22 6 32.................Y....vr+++eF....L6+++GC....;
#X connect 16 0 74 0;
#X connect 17 0 22 7 32.................Y....3q+++eF....95+++GC....;
#X connect 17 0 75 0;
#X connect 18 0 22 8 32.................Y.....q+++eF....v5+++GC....;
#X connect 18 0 76 0;
#X connect 19 0 22 9 32.................Y....Lp+++eF....i5+++GC....;
#X connect 19 0 77 0;
#X connect 20 0 22 10 32.................Y....To+++eF....U5+++GC....;
#X connect 20 0 78 0;
#X connect 21 0 22 11 32.................Y....fn+++eF....H5+++GC....;
#X connect 21 0 79 0;
#X connect 22 0 23 0;
#X connect 25 0 29 0;
#X connect 25 1 24 0;
#X connect 26 0 29 1;
#X connect 29 0 45 0;
#X connect 30 0 35 0;
#X connect 30 0 36 0;
#X connect 30 0 34 0;
#X connect 31 0 30 0;
#X connect 31 0 67 0;
#X connect 32 0 37 0;
#X connect 32 0 38 0;
#X connect 33 0 37 0;
#X connect 33 0 38 0;
#X connect 34 0 30 1;
#X connect 35 0 37 0;
#X connect 36 0 38 0;
#X connect 39 0 47 0;
#X connect 40 0 39 0;
#X connect 40 1 41 0;
#X connect 41 0 42 0;
#X connect 44 0 85 0;
#X connect 45 0 85 0;
#X connect 46 0 85 0;
#X connect 47 0 48 0;
#X connect 49 0 50 0;
#X connect 50 0 9 0;
#X connect 50 1 11 0;
#X connect 50 2 12 0;
#X connect 50 3 13 0;
#X connect 50 4 14 0;
#X connect 50 5 15 0;
#X connect 50 6 16 0;
#X connect 50 7 17 0;
#X connect 50 8 18 0;
#X connect 50 9 19 0;
#X connect 50 10 20 0;
#X connect 50 11 21 0;
#X connect 52 0 53 0;
#X connect 52 0 53 1;
#X connect 53 0 60 0;
#X connect 53 1 60 0;
#X connect 54 0 58 0;
#X connect 55 0 87 0;
#X connect 56 0 55 1;
#X connect 57 0 55 0;
#X connect 58 0 52 0;
#X connect 59 0 68 0;
#X connect 59 0 80 0;
#X connect 60 0 51 0;
#X connect 60 0 51 1;
#X connect 67 0 66 0;
#X connect 69 0 8 1;
#X connect 70 0 8 2;
#X connect 71 0 8 3;
#X connect 72 0 8 4;
#X connect 73 0 8 5;
#X connect 74 0 8 6;
#X connect 75 0 8 7;
#X connect 76 0 8 8;
#X connect 77 0 8 9;
#X connect 78 0 8 10;
#X connect 79 0 8 11;
#X connect 80 0 11 0;
#X connect 80 0 13 0;
#X connect 80 0 14 0;
#X connect 80 0 15 0;
#X connect 80 0 16 0;
#X connect 80 0 17 0;
#X connect 80 0 18 0;
#X connect 80 0 19 0;
#X connect 80 0 20 0;
#X connect 80 0 21 0;
#X connect 80 0 12 0;
#X connect 85 0 40 0;
#X connect 86 0 25 0;
#X connect 86 1 25 0;
#X connect 86 2 25 0;
#X connect 86 3 25 0;
#X connect 86 4 25 0;
#X connect 86 5 25 0;
#X connect 86 6 25 0;
#X connect 86 7 25 0;
#X connect 86 8 25 0;
#X connect 86 9 25 0;
#X connect 86 10 25 0;
#X connect 86 11 25 0;
#X connect 86 12 25 0;
#X connect 87 0 0 0;
#X connect 87 0 1 0;
#X connect 87 0 7 0;
#X connect 88 0 89 1;
#X connect 89 0 91 0;
#X connect 90 0 89 0;
#X connect 91 0 21 0 32.................N....L2+++uC....y8+++uA....;
#X connect 91 0 20 0 32.................I....P0+++eB....T8+++uA....;
#X connect 91 0 19 0 32.................I....Ty+++eB....07+++uA....;
#X connect 91 0 18 0 32.................N....Xw+++uC....V7+++uA....;
#X connect 91 0 17 0 32.................I....bu+++eB....26+++uA....;
#X connect 91 0 16 0 32.................I....fs+++eB....X6+++uA....;
#X connect 91 0 15 0 32.................N....jq+++uC....45+++uA....;
#X connect 91 0 14 0 32.................I....no+++eB....Z5+++uA....;
#X connect 91 0 12 0 32.................N....vk+++uC....b4+++uA....;
#X connect 91 0 9 0 32.................O....3g++++C....d3+++uA....;
#X connect 91 0 11 0 32.................O....zi++++C....83+++uA....;
#X connect 91 0 13 0 32.................N....rm+++uC....64+++uA....;
